<svg width="218" height="202" viewBox="0 0 218 202" fill="none" xmlns="http://www.w3.org/2000/svg">
<g opacity="0.15" clip-path="url(#clip0_41_18)">
<path d="M46.2219 122.253C59.4962 120.231 67.8232 102.614 64.8207 82.9055C61.8182 63.1966 48.6233 48.8589 35.349 50.8811C22.0747 52.9033 13.7477 70.5198 16.7502 90.2286C19.7527 109.937 32.9476 124.275 46.2219 122.253Z" fill="url(#paint0_linear_41_18)"/>
<path d="M174.831 -11.8164L98.8801 -0.245827C57.1933 6.10481 28.4374 44.2562 34.6408 84.9768L36.6185 97.9587C41.3174 128.803 64.7335 152.266 93.9352 159.078C95.6074 159.464 97.0764 160.454 98.0814 161.821L116.471 186.642C118.056 188.779 121.425 188.424 122.542 186.003L133.551 161.993C134.586 159.744 136.715 158.156 139.205 157.777L199.273 148.626C240.96 142.275 269.716 104.124 263.513 63.4031L261.535 50.4211C255.332 9.70055 216.51 -18.1559 174.833 -11.8068L174.831 -11.8164Z" fill="url(#paint1_linear_41_18)"/>
<path d="M95.8928 1.1961L171.383 -10.3042C212.368 -16.5479 250.727 11.7638 256.991 52.8798C263.622 96.407 233.778 137.103 190.399 143.711L123.6 153.887C80.2121 160.497 39.6121 130.523 32.9825 87.0057C26.7188 45.8897 54.9079 7.43982 95.8928 1.1961Z" fill="#E6E6E6"/>
<path d="M182.577 -13.0852L178.707 -38.4897C178.012 -43.0517 173.756 -46.1929 169.208 -45.5002L168.372 -45.3727C163.824 -44.68 160.697 -40.4139 161.392 -35.8519L165.128 -11.3251L100.646 -1.50178C99.3772 -1.30845 98.1237 -1.078 96.8827 -0.829732L93.205 -24.9708C92.51 -29.5328 88.2539 -32.674 83.7065 -31.9812L82.8701 -31.8538C78.3226 -31.161 75.195 -26.895 75.89 -22.333L80.007 4.69188C49.4581 18.7407 30.5535 51.8189 35.8857 86.82C42.3375 129.171 81.7833 158.284 123.999 151.853L194.182 141.161C236.397 134.73 265.384 95.1911 258.933 52.8406C253.085 14.4541 220.118 -13.0706 182.558 -13.0823L182.577 -13.0852Z" fill="url(#paint2_linear_41_18)"/>
<path d="M177.642 13.414L100.826 25.1164C76.1088 28.8818 59.1341 52.0352 62.9116 76.831L64.9539 90.2374C68.7314 115.033 91.8305 132.082 116.547 128.316L193.364 116.614C218.081 112.848 235.055 89.6951 231.278 64.8993L229.235 51.4929C225.458 26.6971 202.359 9.64861 177.642 13.414Z" fill="url(#paint3_linear_41_18)"/>
<path d="M116.294 43.4841L115.467 43.61C110.917 44.3033 107.792 48.5659 108.487 53.1309L111.699 74.2145C112.395 78.7795 116.647 81.9182 121.198 81.225L122.024 81.099C126.575 80.4058 129.7 76.1432 129.004 71.5782L125.793 50.4945C125.097 45.9296 120.844 42.7909 116.294 43.4841Z" fill="black"/>
<path d="M169.191 35.4257L168.326 35.5576C163.786 36.2492 160.668 40.5018 161.362 45.0562L164.58 66.1784C165.273 70.7327 169.516 73.8641 174.056 73.1725L174.921 73.0407C179.461 72.3491 182.579 68.0964 181.885 63.542L178.667 42.4198C177.973 37.8655 173.731 34.7341 169.191 35.4257Z" fill="black"/>
<path d="M163.6 92.0355C164.371 97.099 160.266 101.919 154.42 102.809C148.575 103.7 143.22 100.321 142.449 95.2577" stroke="black" stroke-width="5" stroke-miterlimit="10" stroke-linecap="round"/>
</g>
<defs>
<linearGradient id="paint0_linear_41_18" x1="16.1807" y1="61.2422" x2="60.007" y2="106.077" gradientUnits="userSpaceOnUse">
<stop offset="0.19" stop-color="#E6E6E6"/>
<stop offset="0.95" stop-color="#B3B3B3"/>
</linearGradient>
<linearGradient id="paint1_linear_41_18" x1="164.874" y1="-3.49997" x2="131.861" y2="157.148" gradientUnits="userSpaceOnUse">
<stop stop-color="#CCCCCC"/>
<stop offset="1" stop-color="#B3B3B3"/>
</linearGradient>
<linearGradient id="paint2_linear_41_18" x1="33.4071" y1="70.4209" x2="256.454" y2="36.4414" gradientUnits="userSpaceOnUse">
<stop stop-color="#4BCBB8"/>
<stop offset="1" stop-color="#29DAE2"/>
</linearGradient>
<linearGradient id="paint3_linear_41_18" x1="137.73" y1="18.4976" x2="156.477" y2="123.23" gradientUnits="userSpaceOnUse">
<stop stop-color="white"/>
<stop offset="1" stop-color="#D2F7FF"/>
</linearGradient>
<clipPath id="clip0_41_18">
<rect width="267.438" height="223.415" fill="white" transform="translate(0 -19.7227) rotate(-8.66196)"/>
</clipPath>
</defs>
</svg>
