<svg width="299" height="262" viewBox="0 0 299 262" fill="none" xmlns="http://www.w3.org/2000/svg">
<g opacity="0.15" clip-path="url(#clip0_41_18)">
<path d="M46.2219 182.253C59.4962 180.231 67.8232 162.614 64.8207 142.905C61.8182 123.197 48.6233 108.859 35.349 110.881C22.0747 112.903 13.7477 130.52 16.7502 150.229C19.7527 169.937 32.9476 184.275 46.2219 182.253Z" fill="url(#paint0_linear_41_18)"/>
<path d="M262.539 149.299C275.813 147.277 284.14 129.66 281.138 109.951C278.135 90.2425 264.94 75.9047 251.666 77.9269C238.392 79.9492 230.065 97.5656 233.067 117.274C236.07 136.983 249.265 151.321 262.539 149.299Z" fill="url(#paint1_linear_41_18)"/>
<path d="M174.831 48.1836L98.88 59.7542C57.1933 66.1048 28.4374 104.256 34.6408 144.977L36.6185 157.959C41.3174 188.803 64.7335 212.266 93.9351 219.078C95.6073 219.464 97.0763 220.454 98.0814 221.821L116.471 246.642C118.056 248.779 121.425 248.424 122.542 246.003L133.551 221.993C134.586 219.744 136.715 218.156 139.205 217.777L199.273 208.626C240.96 202.275 269.716 164.124 263.513 123.403L261.535 110.421C255.331 69.7006 216.51 41.8441 174.833 48.1932L174.831 48.1836Z" fill="url(#paint2_linear_41_18)"/>
<path d="M95.8928 61.1961L171.383 49.6958C212.368 43.4521 250.727 71.7638 256.991 112.88C263.622 156.407 233.778 197.103 190.399 203.711L123.6 213.887C80.212 220.497 39.612 190.523 32.9825 147.006C26.7188 105.89 54.9079 67.4398 95.8928 61.1961Z" fill="#E6E6E6"/>
<path d="M182.577 46.9148L178.707 21.5103C178.012 16.9483 173.756 13.8071 169.208 14.4998L168.372 14.6273C163.824 15.32 160.697 19.5861 161.392 24.1481L165.128 48.6749L100.646 58.4982C99.3773 58.6916 98.1237 58.922 96.8827 59.1703L93.205 35.0292C92.51 30.4672 88.254 27.326 83.7065 28.0188L82.8701 28.1462C78.3226 28.839 75.195 33.105 75.89 37.667L80.007 64.6919C49.4582 78.7407 30.5536 111.819 35.8857 146.82C42.3375 189.171 81.7834 218.284 123.999 211.853L194.182 201.161C236.397 194.73 265.385 155.191 258.933 112.841C253.085 74.4541 220.118 46.9294 182.558 46.9177L182.577 46.9148Z" fill="url(#paint3_linear_41_18)"/>
<path d="M177.642 73.414L100.826 85.1164C76.1088 88.8818 59.1341 112.035 62.9116 136.831L64.9539 150.237C68.7314 175.033 91.8305 192.082 116.547 188.316L193.364 176.614C218.081 172.848 235.055 149.695 231.278 124.899L229.235 111.493C225.458 86.6971 202.359 69.6486 177.642 73.414Z" fill="url(#paint4_linear_41_18)"/>
<path d="M116.294 103.484L115.467 103.61C110.917 104.303 107.792 108.566 108.487 113.131L111.699 134.215C112.395 138.779 116.647 141.918 121.198 141.225L122.024 141.099C126.575 140.406 129.7 136.143 129.004 131.578L125.793 110.495C125.097 105.93 120.844 102.791 116.294 103.484Z" fill="black"/>
<path d="M169.191 95.4257L168.326 95.5576C163.786 96.2492 160.668 100.502 161.362 105.056L164.58 126.178C165.273 130.733 169.516 133.864 174.056 133.172L174.921 133.041C179.461 132.349 182.579 128.096 181.885 123.542L178.667 102.42C177.973 97.8655 173.731 94.7341 169.191 95.4257Z" fill="black"/>
<path d="M163.6 152.036C164.371 157.099 160.266 161.919 154.42 162.809C148.575 163.7 143.22 160.321 142.449 155.258" stroke="black" stroke-width="5" stroke-miterlimit="10" stroke-linecap="round"/>
</g>
<defs>
<linearGradient id="paint0_linear_41_18" x1="16.1807" y1="121.242" x2="60.007" y2="166.077" gradientUnits="userSpaceOnUse">
<stop offset="0.19" stop-color="#E6E6E6"/>
<stop offset="0.95" stop-color="#B3B3B3"/>
</linearGradient>
<linearGradient id="paint1_linear_41_18" x1="261.932" y1="89.1331" x2="254.211" y2="127.871" gradientUnits="userSpaceOnUse">
<stop stop-color="#E6E6E6"/>
<stop offset="1" stop-color="#B3B3B3"/>
</linearGradient>
<linearGradient id="paint2_linear_41_18" x1="164.874" y1="56.5" x2="131.861" y2="217.148" gradientUnits="userSpaceOnUse">
<stop stop-color="#CCCCCC"/>
<stop offset="1" stop-color="#B3B3B3"/>
</linearGradient>
<linearGradient id="paint3_linear_41_18" x1="33.4071" y1="130.421" x2="256.454" y2="96.4414" gradientUnits="userSpaceOnUse">
<stop stop-color="#4BCBB8"/>
<stop offset="1" stop-color="#29DAE2"/>
</linearGradient>
<linearGradient id="paint4_linear_41_18" x1="137.73" y1="78.4976" x2="156.477" y2="183.23" gradientUnits="userSpaceOnUse">
<stop stop-color="white"/>
<stop offset="1" stop-color="#D2F7FF"/>
</linearGradient>
<clipPath id="clip0_41_18">
<rect width="267.438" height="223.415" fill="white" transform="translate(0 40.2773) rotate(-8.66196)"/>
</clipPath>
</defs>
</svg>
