<svg width="325" height="336" viewBox="0 0 325 336" fill="none" xmlns="http://www.w3.org/2000/svg">
<circle cx="163" cy="172" r="139" stroke="#D9D9D9" stroke-width="2"/>
<path d="M163 334C74.0822 334 2 261.918 2 173" stroke="#D9D9D9" stroke-width="4" stroke-linecap="round"/>
<path d="M151.121 11.1022C240.006 5.29308 316.771 72.6396 322.58 161.525" stroke="#D9D9D9" stroke-width="4" stroke-linecap="round"/>
<g clip-path="url(#clip0_44_2)">
<path d="M64.0909 203.856C76.2914 203.856 86.1818 189.171 86.1818 171.057C86.1818 152.942 76.2914 138.258 64.0909 138.258C51.8904 138.258 42 152.942 42 171.057C42 189.171 51.8904 203.856 64.0909 203.856Z" fill="url(#paint0_linear_44_2)"/>
<path d="M262.909 203.856C275.11 203.856 285 189.171 285 171.057C285 152.942 275.11 138.258 262.909 138.258C250.709 138.258 240.818 152.942 240.818 171.057C240.818 189.171 250.709 203.856 262.909 203.856Z" fill="url(#paint1_linear_44_2)"/>
<path d="M197.962 101.026H128.155C89.84 101.026 58.7891 131.361 58.7891 168.787V180.719C58.7891 209.068 76.612 233.348 101.911 243.463C103.36 244.039 104.544 245.13 105.259 246.495L118.382 271.307C119.513 273.443 122.588 273.585 123.922 271.564L137.097 251.503C138.334 249.624 140.464 248.489 142.752 248.489H197.962C236.276 248.489 267.327 218.155 267.327 180.728V168.796C267.327 131.37 236.267 101.035 197.962 101.035V101.026Z" fill="url(#paint2_linear_44_2)"/>
<path d="M125.274 101.913H194.657C232.326 101.913 262.909 132.593 262.909 170.383C262.909 210.389 230.533 242.86 190.663 242.86H129.268C89.3895 242.86 57.0219 210.38 57.0219 170.383C57.0219 132.593 87.6045 101.913 125.274 101.913Z" fill="#E6E6E6"/>
<path d="M205.093 100.946V77.597C205.093 73.404 201.7 70 197.52 70H196.751C192.572 70 189.178 73.404 189.178 77.597V100.14H129.913C128.747 100.14 127.589 100.175 126.44 100.228V78.0402C126.44 73.8472 123.047 70.4432 118.867 70.4432H118.099C113.919 70.4432 110.526 73.8472 110.526 78.0402V102.879C81.1627 111.318 59.655 138.444 59.655 170.614C59.655 209.538 91.1036 241.087 129.904 241.087H194.41C233.21 241.087 264.659 209.538 264.659 170.614C264.659 135.332 238.812 106.097 205.075 100.946H205.093Z" fill="url(#paint3_linear_44_2)"/>
<path d="M197.034 124.074H126.431C103.714 124.074 85.2982 142.549 85.2982 165.339V177.661C85.2982 200.451 103.714 218.926 126.431 218.926H197.034C219.751 218.926 238.167 200.451 238.167 177.661V165.339C238.167 142.549 219.751 124.074 197.034 124.074Z" fill="url(#paint4_linear_44_2)"/>
<path d="M137.813 142.69H137.053C132.87 142.69 129.48 146.091 129.48 150.287V169.665C129.48 173.861 132.87 177.262 137.053 177.262H137.813C141.995 177.262 145.385 173.861 145.385 169.665V150.287C145.385 146.091 141.995 142.69 137.813 142.69Z" fill="black"/>
<path d="M186.43 142.69H185.635C181.463 142.69 178.08 146.083 178.08 150.269V169.683C178.08 173.869 181.463 177.262 185.635 177.262H186.43C190.603 177.262 193.985 173.869 193.985 169.683V150.269C193.985 146.083 190.603 142.69 186.43 142.69Z" fill="black"/>
<path d="M173.662 192.775C173.662 197.429 169.314 201.197 163.942 201.197C158.569 201.197 154.222 197.429 154.222 192.775" stroke="black" stroke-width="5" stroke-miterlimit="10" stroke-linecap="round"/>
</g>
<defs>
<linearGradient id="paint0_linear_44_2" x1="45.455" y1="144.942" x2="78.6871" y2="191.212" gradientUnits="userSpaceOnUse">
<stop offset="0.19" stop-color="#E6E6E6"/>
<stop offset="0.95" stop-color="#B3B3B3"/>
</linearGradient>
<linearGradient id="paint1_linear_44_2" x1="270.597" y1="149.728" x2="258.36" y2="183.469" gradientUnits="userSpaceOnUse">
<stop stop-color="#E6E6E6"/>
<stop offset="1" stop-color="#B3B3B3"/>
</linearGradient>
<linearGradient id="paint2_linear_44_2" x1="187.879" y1="107.134" x2="136.242" y2="246.92" gradientUnits="userSpaceOnUse">
<stop stop-color="#CCCCCC"/>
<stop offset="1" stop-color="#B3B3B3"/>
</linearGradient>
<linearGradient id="paint3_linear_44_2" x1="59.6727" y1="155.544" x2="264.676" y2="155.544" gradientUnits="userSpaceOnUse">
<stop stop-color="#4BCBB8"/>
<stop offset="1" stop-color="#29DAE2"/>
</linearGradient>
<linearGradient id="paint4_linear_44_2" x1="160.487" y1="123.179" x2="162.995" y2="219.821" gradientUnits="userSpaceOnUse">
<stop stop-color="white"/>
<stop offset="1" stop-color="#D2F7FF"/>
</linearGradient>
<clipPath id="clip0_44_2">
<rect width="243" height="203" fill="white" transform="translate(42 70)"/>
</clipPath>
</defs>
</svg>
