<?xml version="1.0" encoding="UTF-8"?>
<svg id="Calque_2" data-name="Calque 2" xmlns="http://www.w3.org/2000/svg" viewBox="0 0 532.06 504.02">
  <defs>
    <style>
      .cls-1 {
        fill: #fff;
      }
    </style>
  </defs>
  <g id="Calque_2-2" data-name="Calque 2">
    <g id="Calque_1-2" data-name="Calque 1-2">
      <g>
        <path class="cls-1" d="M479.98,245.3c-2.24-8.96-7.84-15.68-15.68-19.04-19.04,36.4-37.52,72.8-38.64,75.6-7.28,14.56-21.84,23.52-38.08,23.52s-30.8-8.96-38.08-23.52l-40.32-78.4H80.13c-4.48,0-9.52,1.12-13.44,3.36l458.64,215.6-45.35-197.12h0Z"/>
        <path class="cls-1" d="M51.02,249.78L.62,469.3c-1.68,8.4,0,17.36,5.6,24.08,5.6,6.72,13.44,10.64,22.4,10.64h45.36l93.52-199.92-116.48-54.32h0Z"/>
        <path class="cls-1" d="M192.7,316.42l-87.92,187.6H247.58l115.92-106.96-170.8-80.64h0Z"/>
        <path class="cls-1" d="M390.94,409.94l-102.48,94.08h215.04c8.4,0,16.8-3.92,22.4-10.64,3.92-5.04,6.16-10.64,6.16-16.8l-141.12-66.64Z"/>
        <path class="cls-1" d="M375.26,288.98c5.04,10.64,20.72,10.64,25.76,0,0,0,61.04-118.72,75.04-146.72s14.56-59.36,0-88.48C451.42,5.62,392.62-13.98,343.9,10.66s-67.2,85.12-43.68,131.6c24.08,46.48,75.04,146.72,75.04,146.72h0Zm12.88-235.76c25.76,0,46.48,20.72,46.48,46.48s-20.72,46.48-46.48,46.48-46.48-20.72-46.48-46.48,20.72-46.48,46.48-46.48Z"/>
      </g>
    </g>
  </g>
</svg>